<mxfile host="app.diagrams.net" modified="2022-12-10T08:03:41.532Z" agent="5.0 (Macintosh; Intel Mac OS X 10_15_7) AppleWebKit/537.36 (KHTML, like Gecko) Chrome/108.0.0.0 Safari/537.36" etag="5jKFNoo2JEkSDuv5vhco" version="20.6.0" type="github">
  <diagram id="pm73N6I4ifg4NlOD--yJ" name="第 1 页">
    <mxGraphModel dx="2342" dy="1420" grid="0" gridSize="10" guides="1" tooltips="1" connect="1" arrows="1" fold="1" page="0" pageScale="1" pageWidth="900" pageHeight="1600" math="0" shadow="0">
      <root>
        <mxCell id="0" />
        <mxCell id="1" parent="0" />
        <mxCell id="qANSEEMcXUb1CBoxWqj7-3" value="" style="rounded=1;whiteSpace=wrap;html=1;arcSize=2;fillColor=#f9f9f9;" parent="1" vertex="1">
          <mxGeometry x="-891" y="165" width="880" height="932" as="geometry" />
        </mxCell>
        <mxCell id="qANSEEMcXUb1CBoxWqj7-4" value="" style="rounded=1;whiteSpace=wrap;html=1;arcSize=2;strokeWidth=5;fillColor=#f9f9f9;" parent="1" vertex="1">
          <mxGeometry x="-878.5" y="178" width="855" height="650" as="geometry" />
        </mxCell>
        <mxCell id="qANSEEMcXUb1CBoxWqj7-5" value="" style="rounded=1;whiteSpace=wrap;html=1;arcSize=0;strokeWidth=5;fillColor=#000000;" parent="1" vertex="1">
          <mxGeometry x="-878.5" y="246" width="855" height="501" as="geometry" />
        </mxCell>
        <mxCell id="qANSEEMcXUb1CBoxWqj7-13" value="" style="rounded=1;whiteSpace=wrap;html=1;strokeWidth=5;fontSize=89;fillColor=none;strokeColor=#032014;" parent="1" vertex="1">
          <mxGeometry x="-287" y="865" width="218" height="82" as="geometry" />
        </mxCell>
        <mxCell id="yL1aq7DCFhl8T2kSVwG6-1" value="" style="ellipse;whiteSpace=wrap;html=1;aspect=fixed;fillColor=#09FFA7;strokeColor=#0CCC7A;" parent="1" vertex="1">
          <mxGeometry x="-723.5" y="183" width="58" height="58" as="geometry" />
        </mxCell>
        <mxCell id="yL1aq7DCFhl8T2kSVwG6-4" value="" style="ellipse;whiteSpace=wrap;html=1;aspect=fixed;fillColor=#FEC434;strokeColor=#D2A621;" parent="1" vertex="1">
          <mxGeometry x="-797.5" y="182.97" width="58" height="58" as="geometry" />
        </mxCell>
        <mxCell id="yL1aq7DCFhl8T2kSVwG6-5" value="" style="endArrow=none;html=1;rounded=0;strokeWidth=7;fontSize=51;fontColor=#02a04f;strokeColor=#995501;" parent="1" edge="1">
          <mxGeometry width="50" height="50" relative="1" as="geometry">
            <mxPoint x="-786.5" y="214.97" as="sourcePoint" />
            <mxPoint x="-749.5" y="214.97" as="targetPoint" />
          </mxGeometry>
        </mxCell>
        <mxCell id="yL1aq7DCFhl8T2kSVwG6-6" value="" style="ellipse;whiteSpace=wrap;html=1;aspect=fixed;fillColor=#FE6C68;strokeColor=#A95B56;" parent="1" vertex="1">
          <mxGeometry x="-871.5" y="182.97" width="58" height="58" as="geometry" />
        </mxCell>
        <mxCell id="yL1aq7DCFhl8T2kSVwG6-7" value="" style="shape=image;verticalLabelPosition=bottom;labelBackgroundColor=default;verticalAlign=top;aspect=fixed;imageAspect=0;image=data:image/svg+xml,PHN2ZyB4bWxuczp4bGluaz0iaHR0cDovL3d3dy53My5vcmcvMTk5OS94bGluayIgeG1sbnM9Imh0dHA6Ly93d3cudzMub3JnLzIwMDAvc3ZnIiBoZWlnaHQ9IjIwMCIgd2lkdGg9IjIwMCIgdmVyc2lvbj0iMS4xIiB2aWV3Qm94PSIwIDAgMTAyNCAxMDI0IiBjbGFzcz0iaWNvbiI+PHBhdGggZmlsbD0iIzdmMDAwMCIgZD0iTTYzMi4xMTc5NzggNTEzLjgzMzM1NmwzNjEuODA1ODEyIDM2MS43MzUyOThhODUuNDYyNjA4IDg1LjQ2MjYwOCAwIDEgMS0xMjEuMDAxNTE1IDEyMC43ODk5NzRMNTExLjExNjQ2MyA2MzQuNTUyODE2IDE0Ni45MTMxODYgOTk4Ljc1NjA5NGE4Ni4wMjY3MTggODYuMDI2NzE4IDAgMCAxLTEyMS43MDY2NTItMTIxLjcwNjY1MkwzODkuNDgwMzI1IDUxMi43NzU2NTEgMjcuNjc0NTEzIDE1MC45Njk4MzlBODUuMzkyMDk1IDg1LjM5MjA5NSAwIDAgMSAxNDguMzkzOTczIDMwLjI1MDM3OUw1MTAuMTk5Nzg1IDM5Mi4wNTYxOTFsMzY2LjY3MTI1OC0zNjYuNjcxMjU4YTg2LjAyNjcxOCA4Ni4wMjY3MTggMCAwIDEgMTIxLjcwNjY1MiAxMjEuNzA2NjUyeiIvPjwvc3ZnPg==;" parent="1" vertex="1">
          <mxGeometry x="-861.22" y="193.29" width="37.43" height="37.43" as="geometry" />
        </mxCell>
        <mxCell id="yL1aq7DCFhl8T2kSVwG6-10" value="" style="group;rotation=30;" parent="1" vertex="1" connectable="0">
          <mxGeometry x="-721" y="197.64000000000001" width="53" height="30.659999999999997" as="geometry" />
        </mxCell>
        <mxCell id="yL1aq7DCFhl8T2kSVwG6-8" value="" style="triangle;whiteSpace=wrap;html=1;strokeColor=none;fillColor=#02A04F;rounded=1;arcSize=12;rotation=30;" parent="yL1aq7DCFhl8T2kSVwG6-10" vertex="1">
          <mxGeometry x="27" y="7" width="23" height="30.66" as="geometry" />
        </mxCell>
        <mxCell id="yL1aq7DCFhl8T2kSVwG6-9" value="" style="triangle;whiteSpace=wrap;html=1;strokeColor=none;fillColor=#02A04F;rounded=1;arcSize=12;flipH=1;rotation=30;" parent="yL1aq7DCFhl8T2kSVwG6-10" vertex="1">
          <mxGeometry x="3" y="-7" width="23" height="30.66" as="geometry" />
        </mxCell>
        <mxCell id="yL1aq7DCFhl8T2kSVwG6-16" value="&lt;font size=&quot;1&quot; color=&quot;#000000&quot; style=&quot;&quot;&gt;&lt;b style=&quot;font-size: 41px;&quot;&gt;小白debug&lt;/b&gt;&lt;/font&gt;" style="text;html=1;strokeColor=none;fillColor=none;align=center;verticalAlign=middle;whiteSpace=wrap;rounded=0;fontColor=#6ef1b5;" parent="1" vertex="1">
          <mxGeometry x="-255.5" y="182.97" width="213" height="58" as="geometry" />
        </mxCell>
      </root>
    </mxGraphModel>
  </diagram>
</mxfile>
